<?xml version="1.0" standalone="no"?>
<!DOCTYPE svg PUBLIC "-//W3C//DTD SVG 20010904//EN"
 "http://www.w3.org/TR/2001/REC-SVG-20010904/DTD/svg10.dtd">
<svg version="1.0" xmlns="http://www.w3.org/2000/svg"
 width="330.890504pt" height="331.132872pt" viewBox="0 0 330.890504 331.132872"
 preserveAspectRatio="xMidYMid meet">
<metadata>
Created by potrace 1.12, written by Peter Selinger 2001-2015
</metadata>
<g transform="translate(-1.570168,331.627218) scale(0.100000,-0.100000)"
fill="#000000" stroke="none">
<path d="M1475 3314 c-101 -15 -246 -48 -327 -74 -127 -41 -333 -146 -448
-227 -121 -87 -296 -262 -383 -383 -128 -180 -229 -413 -279 -643 -19 -88 -22
-132 -22 -322 0 -191 3 -234 22 -325 112 -514 431 -932 887 -1160 574 -286
1256 -218 1760 175 508 396 740 1045 599 1673 -34 150 -62 230 -135 377 -81
165 -172 288 -314 430 -139 139 -250 220 -413 303 -141 72 -249 111 -408 148
-104 23 -143 27 -314 30 -107 1 -208 0 -225 -2z m326 -115 c271 -27 510 -111
719 -250 345 -231 572 -571 661 -989 33 -152 33 -427 1 -587 -175 -878 -1033
-1422 -1897 -1203 -401 101 -749 365 -958 727 -252 437 -269 1001 -44 1450
115 228 320 462 522 596 303 200 656 291 996 256z"/>
<path d="M1625 3008 c-38 -5 -96 -17 -128 -28 -32 -10 -66 -16 -75 -13 -9 3
-14 3 -10 -2 4 -4 -34 -27 -85 -50 -216 -98 -273 -129 -321 -177 -28 -26 -54
-48 -60 -48 -5 0 -19 9 -30 19 -37 34 -162 91 -199 91 -41 0 -54 -13 -125
-133 -86 -143 -102 -178 -102 -224 0 -52 40 -219 49 -205 4 7 15 6 30 -2 20
-11 21 -14 6 -20 -9 -3 -21 -4 -26 0 -5 3 -9 1 -9 -5 0 -5 -18 -12 -40 -16
-48 -8 -44 -21 9 -30 22 -3 47 -12 56 -19 14 -10 7 -16 -52 -46 -37 -18 -108
-46 -158 -61 -100 -30 -100 -29 48 -49 48 -7 87 -15 87 -20 0 -4 -30 -20 -68
-36 l-67 -29 40 -7 c22 -4 57 -7 78 -7 21 -1 36 -5 33 -10 -7 -11 -123 -56
-183 -71 -34 -8 -40 -14 -36 -30 6 -24 23 -25 177 -9 59 6 110 8 113 5 3 -3
-21 -33 -53 -66 -45 -47 -80 -72 -149 -106 -50 -24 -96 -44 -102 -44 -7 0 -14
-4 -17 -8 -17 -27 261 37 302 70 19 16 15 7 -33 -78 -43 -74 -131 -282 -123
-289 2 -2 44 43 92 101 49 57 91 103 93 101 2 -3 -1 -16 -6 -30 -13 -33 -41
-170 -36 -175 2 -2 11 11 20 28 18 34 57 75 87 91 13 7 4 -16 -27 -77 -41 -81
-91 -211 -84 -218 2 -2 32 14 67 35 72 44 70 49 22 -78 -16 -40 -24 -73 -18
-73 5 0 25 12 44 26 19 15 37 24 40 21 3 -3 -1 -27 -9 -54 -33 -105 -30 -114
20 -56 l32 38 0 -30 c0 -16 -8 -55 -19 -85 -10 -30 -17 -56 -15 -59 2 -2 23
13 46 33 24 20 51 36 61 36 17 0 16 -4 -6 -49 l-25 -49 59 -4 c33 -2 62 -7 65
-10 4 -3 -4 -38 -16 -77 -11 -40 -19 -74 -17 -76 2 -2 28 2 58 10 30 8 56 13
57 11 2 -2 -8 -29 -22 -61 -38 -88 -41 -85 84 -85 l108 0 6 -65 c5 -73 32
-119 52 -92 6 8 38 44 72 81 l62 66 22 -42 c12 -23 27 -57 33 -77 l12 -34 20
53 c27 74 42 81 92 42 l40 -32 6 25 c3 13 11 37 17 52 l11 28 26 -55 26 -55 6
65 c7 63 32 140 46 140 4 0 4 -35 1 -78 l-6 -77 50 95 50 95 -5 -75 -5 -75 33
65 c34 64 34 65 41 35 4 -16 8 -34 9 -40 1 -5 11 13 21 40 11 28 28 65 39 84
l20 35 13 -33 c19 -45 47 -39 51 12 4 45 18 48 27 7 4 -17 10 -30 14 -30 11 0
41 131 41 179 0 48 26 58 36 14 3 -16 11 -43 18 -62 l13 -35 22 67 c13 37 24
67 26 67 2 0 11 -24 21 -52 l18 -53 14 70 c7 39 16 81 18 94 5 22 7 23 21 8 8
-8 23 -39 33 -67 17 -49 19 -51 29 -31 7 12 20 54 30 94 l17 72 18 -27 c10
-15 20 -46 23 -68 3 -24 10 -37 15 -32 14 14 37 143 35 200 l-2 54 52 -59 53
-58 0 80 1 80 16 -32 c9 -18 21 -33 25 -33 5 0 8 64 7 142 l-2 141 68 47 c86
61 139 111 197 187 65 86 75 107 93 213 18 105 13 147 -33 264 -24 63 -32 73
-85 107 -33 21 -67 41 -77 44 -12 4 -19 19 -22 50 -5 42 -39 96 -98 153 -9 10
-54 62 -100 117 -264 314 -313 364 -380 384 -22 6 -102 16 -178 20 -85 6 -151
15 -173 25 -86 37 -171 52 -244 44z m55 -90 c0 -29 -7 -82 -15 -117 -9 -35
-13 -66 -11 -68 2 -3 17 14 33 38 23 34 28 56 31 116 4 63 7 73 23 73 15 0
156 -47 168 -56 2 -2 -31 -42 -74 -89 -43 -47 -74 -85 -71 -85 39 0 156 102
171 150 7 22 9 23 129 18 128 -5 179 -19 225 -61 25 -23 434 -483 463 -520 9
-12 19 -34 22 -49 5 -23 3 -28 -12 -28 -13 0 -28 22 -53 72 -62 130 -206 250
-349 288 -77 21 -177 28 -262 19 -77 -9 -194 -37 -186 -44 2 -2 33 0 68 5 201
29 401 -9 540 -104 78 -54 115 -91 168 -170 l40 -60 -52 -19 c-28 -11 -72 -21
-98 -21 -27 0 -48 -2 -48 -4 0 -2 18 -33 40 -69 22 -37 40 -77 40 -90 0 -13 8
-40 19 -61 10 -20 26 -55 35 -77 l17 -40 -31 30 c-17 17 -57 68 -88 114 -74
110 -178 217 -271 276 -72 47 -249 130 -258 121 -2 -2 45 -34 106 -70 126 -77
193 -127 271 -205 86 -87 250 -288 267 -329 14 -34 14 -35 -3 -22 -16 14 -17
13 -10 -15 4 -19 -8 -3 -33 41 -50 89 -168 215 -278 298 -47 35 -151 98 -233
140 -152 78 -213 100 -125 44 195 -124 372 -246 437 -302 103 -88 204 -207
211 -248 3 -18 9 -49 13 -68 7 -33 6 -34 -11 -20 -17 13 -18 13 -13 0 21 -52
21 -56 0 -32 -11 12 -23 22 -26 22 -13 0 -5 -97 19 -216 18 -89 25 -157 24
-232 l0 -107 -24 50 -23 50 -1 -94 -1 -95 -52 68 -53 69 -7 -107 c-3 -59 -8
-110 -11 -112 -11 -11 -44 66 -51 116 -4 29 -23 117 -42 194 -21 85 -37 179
-40 236 -3 52 -10 110 -16 129 -15 50 -144 214 -244 312 -122 119 -213 175
-344 213 -64 19 -56 7 12 -18 125 -46 282 -178 419 -353 106 -135 129 -180
129 -252 0 -75 20 -161 74 -331 50 -155 53 -168 32 -151 -11 9 -15 -1 -21 -56
-4 -38 -10 -77 -14 -87 -14 -36 -58 71 -80 196 -43 232 -77 319 -161 409 -46
49 -50 56 -40 82 5 16 7 34 3 40 -4 7 0 8 12 4 17 -7 17 -6 0 20 -11 16 -14
28 -8 30 17 6 -11 107 -43 160 -40 65 -101 109 -170 123 -42 9 -89 9 -199 0
l-144 -12 -49 49 c-55 55 -168 119 -228 128 -21 4 -75 2 -119 -4 -103 -15
-147 -43 -179 -114 -45 -97 -50 -112 -48 -134 0 -13 -3 -23 -9 -23 -5 0 -4 -9
3 -19 10 -17 9 -23 -6 -40 -17 -19 -17 -21 -2 -21 15 0 15 -2 1 -30 -19 -36
-19 -41 0 -34 19 8 19 0 0 -36 -9 -17 -11 -30 -6 -30 6 0 8 -7 5 -15 -4 -8 -1
-15 6 -15 9 0 7 -7 -5 -20 -17 -19 -17 -20 0 -20 15 0 16 -2 4 -17 -13 -15
-11 -16 14 -9 30 7 32 4 16 -26 -10 -18 -9 -20 5 -15 13 5 16 0 16 -24 0 -20
4 -28 12 -23 8 5 9 -2 5 -26 -5 -25 -4 -31 7 -27 10 4 12 0 8 -15 -4 -17 -2
-20 13 -15 14 6 16 3 12 -13 -3 -11 -1 -20 5 -20 6 0 8 -9 5 -20 -3 -13 0 -20
9 -20 9 0 4 -15 -16 -47 -89 -146 -102 -349 -35 -517 13 -32 21 -64 18 -72 -5
-12 -93 -46 -101 -39 -2 2 6 33 17 70 12 37 21 69 21 71 0 2 -29 4 -65 4 l-65
0 31 61 31 62 -38 -6 c-21 -4 -51 -16 -66 -27 -32 -24 -32 -25 -14 58 18 83
68 157 140 207 31 21 54 40 52 42 -11 11 -81 -13 -117 -39 -29 -21 -49 -48
-69 -91 -15 -34 -38 -71 -50 -82 l-21 -19 7 29 c4 17 15 52 25 78 11 26 19 50
19 53 0 3 -20 -11 -45 -32 -25 -20 -48 -34 -51 -31 -8 8 44 147 70 187 13 19
33 51 44 70 12 19 58 71 103 114 67 65 78 81 65 88 -25 14 -152 22 -160 10 -6
-10 61 -42 92 -43 13 0 12 -4 -8 -17 -73 -50 -119 -105 -140 -167 -20 -59 -26
-67 -78 -99 -31 -19 -58 -31 -60 -27 -4 13 58 151 99 219 22 36 37 67 35 69
-7 7 -75 -17 -81 -28 -4 -5 -14 -13 -25 -19 -17 -9 -18 -7 -8 28 5 20 30 79
54 131 24 52 43 95 42 97 -2 1 -43 -45 -93 -103 -49 -57 -96 -110 -104 -116
-20 -17 63 144 115 223 l45 67 62 5 c64 5 132 33 158 64 13 15 12 16 -9 10
-12 -4 -64 -16 -114 -26 -50 -10 -102 -27 -117 -38 -15 -11 -52 -32 -81 -47
l-55 -28 55 59 c59 62 106 131 97 141 -4 3 -43 0 -88 -6 -44 -7 -82 -11 -84
-9 -2 2 24 18 58 36 34 18 73 41 87 52 l25 20 -40 0 c-22 1 -48 5 -59 9 -15 6
-11 10 24 24 42 16 43 16 101 -13 60 -31 151 -42 164 -20 3 6 -3 10 -15 10
-12 0 -53 14 -93 31 -39 16 -101 34 -137 39 -36 5 -78 13 -95 18 l-30 8 65 33
c36 17 87 48 115 68 l49 36 -39 11 -40 12 40 24 39 24 -28 12 -29 11 42 33
c47 38 113 119 106 131 -14 22 43 17 123 -10 49 -17 101 -31 115 -31 14 0 83
18 152 40 124 39 267 70 329 70 17 0 38 5 46 10 20 13 -154 13 -235 0 -33 -5
-113 -26 -177 -46 l-118 -37 -79 18 c-50 12 -77 23 -74 31 2 6 -11 23 -29 37
-18 14 -30 28 -28 30 3 2 31 21 63 43 32 21 65 43 72 49 10 7 49 -2 127 -28
62 -20 136 -42 163 -48 60 -14 258 -15 300 -2 25 8 14 11 -70 17 -55 4 -125
12 -155 17 -62 11 -312 71 -320 77 -6 4 30 33 105 84 l60 40 85 -6 c47 -3 121
-15 165 -25 77 -19 79 -19 57 -1 -30 25 -123 59 -180 67 l-45 6 27 14 c15 8
63 30 106 48 l79 34 50 -63 c28 -35 62 -71 76 -80 24 -16 24 -16 15 9 -12 30
-36 70 -67 108 -36 45 -40 43 102 71 53 10 55 9 55 -46z m-903 -187 c23 -11
58 -31 78 -44 l36 -24 -48 -17 c-26 -9 -56 -20 -65 -23 -13 -4 -18 3 -23 30
-4 20 -16 43 -26 53 -18 16 -20 15 -54 -20 -44 -47 -46 -71 -2 -28 18 18 36
32 39 32 4 0 12 -16 18 -36 7 -20 19 -48 27 -62 13 -24 14 -24 10 -4 -5 20 -1
22 35 22 34 0 39 -2 29 -14 -7 -8 -32 -23 -57 -33 -24 -10 -44 -22 -44 -28 0
-18 14 -32 40 -40 l25 -8 -30 -13 c-16 -7 -55 -13 -85 -14 l-55 -1 47 -27 c27
-15 48 -30 48 -33 0 -4 -23 -28 -52 -55 -37 -35 -53 -44 -57 -34 -2 8 -15 49
-27 90 -21 74 -22 75 -33 46 -12 -31 -2 -106 19 -146 8 -15 6 -21 -11 -30 -11
-7 -22 -10 -23 -8 -2 2 -8 42 -15 89 -14 96 -6 130 47 198 15 19 29 40 32 46
22 45 106 155 119 155 9 0 35 -9 58 -19z m2067 -543 c52 -36 88 -68 77 -68 -5
0 -13 5 -16 10 -10 17 -94 11 -133 -9 -20 -11 -55 -38 -77 -60 l-40 -42 78 41
c87 44 134 51 161 21 26 -29 46 -106 46 -180 1 -54 3 -62 12 -47 6 11 14 45
18 75 l7 56 2 -55 c1 -91 -33 -205 -81 -267 -38 -50 -72 -83 -53 -53 5 8 -26
-16 -67 -52 -81 -71 -132 -103 -148 -93 -18 11 -10 61 13 83 13 12 27 20 30
17 4 -3 5 -2 2 1 -2 4 7 21 20 39 34 43 31 55 -4 21 -21 -20 -30 -24 -34 -14
-3 8 7 22 25 34 16 10 38 33 48 50 34 54 48 232 20 249 -4 2 -10 -14 -13 -38
-3 -23 -11 -66 -18 -96 l-11 -54 -13 29 c-7 17 -16 41 -20 55 l-8 24 22 -20
22 -19 -20 53 c-12 29 -28 66 -36 81 -8 16 -15 41 -15 55 0 14 -15 54 -32 88
-18 34 -34 65 -36 70 -2 4 7 7 21 7 14 0 44 9 68 20 55 26 136 20 183 -12z
m-1477 -153 c43 -21 91 -56 122 -87 l50 -51 76 12 c121 18 272 14 320 -8 70
-33 127 -111 149 -203 5 -24 3 -28 -15 -28 -18 0 -19 -2 -9 -15 9 -11 9 -15 1
-15 -7 0 -9 -4 -6 -10 3 -5 1 -10 -5 -10 -8 0 -7 -6 1 -21 8 -15 8 -19 0 -15
-14 9 -14 -5 -1 -40 8 -20 8 -29 -1 -34 -7 -5 -10 -24 -7 -48 2 -24 -1 -40 -7
-39 -5 1 -11 -11 -13 -26 -3 -22 -6 -26 -17 -17 -9 8 -14 6 -19 -6 -3 -9 -3
-21 1 -26 3 -7 1 -8 -5 -4 -8 5 -12 -2 -12 -18 0 -14 -4 -26 -9 -26 -5 0 -13
-10 -17 -22 -6 -20 -8 -20 -19 -5 -14 19 -25 12 -25 -15 0 -15 -5 -17 -25 -12
-20 5 -25 2 -25 -12 0 -15 -3 -14 -26 7 l-27 24 7 -27 c4 -17 2 -28 -4 -28 -5
0 -10 -9 -10 -21 0 -11 -4 -17 -10 -14 -6 4 -10 -5 -10 -19 0 -16 -6 -26 -15
-26 -21 0 -19 -8 17 -97 36 -90 46 -160 26 -185 -10 -12 -147 -78 -162 -78 -2
0 -1 26 0 58 3 42 1 50 -5 32 -5 -14 -9 -41 -10 -60 -1 -34 -4 -37 -61 -59
-52 -21 -69 -23 -132 -16 -40 4 -107 10 -148 15 -41 4 -91 14 -110 22 -51 22
-156 122 -177 169 -9 21 -21 39 -25 39 -19 0 42 -180 77 -226 28 -37 79 -67
134 -79 19 -4 118 -7 221 -7 179 0 188 1 236 25 27 14 71 44 98 68 43 38 48
40 41 19 -27 -87 -97 -176 -175 -222 -105 -62 -218 -71 -393 -32 -57 13 -75
23 -116 63 -108 105 -161 294 -129 458 16 81 32 120 83 207 21 36 25 48 13 44
-12 -5 -17 2 -22 33 -3 21 -11 39 -16 39 -6 0 -10 9 -10 21 0 12 -4 17 -11 13
-8 -4 -9 3 -4 26 6 29 5 32 -10 26 -15 -5 -17 -2 -12 24 4 17 2 30 -4 30 -6 0
-6 7 1 20 8 15 8 20 -1 20 -7 0 -4 9 7 22 19 21 19 21 -3 16 -28 -7 -29 -1 -5
25 16 19 16 20 -5 15 l-22 -6 20 40 c11 22 15 37 9 33 -9 -5 -10 -1 -5 15 6
19 4 22 -10 16 -17 -6 -17 -5 0 20 9 15 13 29 9 33 -5 3 -9 21 -9 40 0 26 6
37 23 44 27 12 29 27 2 27 -26 0 -25 14 4 75 35 76 69 99 171 115 77 13 133 3
212 -35z m1333 -307 c0 -19 -2 -20 -10 -8 -13 19 -13 30 0 30 6 0 10 -10 10
-22z m-20 -34 c0 -8 -4 -14 -10 -14 -5 0 -10 9 -10 21 0 11 5 17 10 14 6 -3
10 -13 10 -21z m-53 -121 c-16 -16 -17 -15 -17 17 0 32 1 33 17 17 16 -16 16
-18 0 -34z m-501 -289 c25 -71 61 -187 79 -259 28 -104 34 -121 35 -87 0 59
-33 218 -74 352 -18 60 -30 107 -26 105 4 -2 21 -33 38 -67 36 -73 125 -373
107 -358 -10 8 -16 -5 -26 -61 l-13 -71 -21 43 c-24 46 -29 44 -40 -18 -7 -46
-19 -56 -28 -23 -5 21 -31 25 -74 14 -21 -6 -23 -13 -24 -68 -1 -33 -3 -53 -6
-43 -4 15 -7 16 -20 5 -13 -11 -14 -4 -7 57 18 172 7 287 -37 386 l-21 47 21
21 c11 11 21 33 21 48 0 21 3 24 12 15 21 -21 28 -13 28 28 0 22 5 40 10 40 6
0 10 8 10 17 0 28 8 10 56 -123z m-147 -163 c6 -46 11 -141 11 -210 0 -69 4
-141 9 -159 12 -40 -6 -95 -21 -67 -14 23 -24 19 -57 -27 l-31 -42 0 30 c0 48
-12 49 -36 2 l-22 -43 -18 38 c-10 20 -21 37 -24 37 -3 0 -12 -21 -18 -47 -18
-71 -28 -83 -46 -58 -12 17 -11 23 9 50 32 42 68 119 94 196 24 73 21 106 -19
210 -17 45 -17 53 -5 66 8 8 15 23 15 34 0 20 15 26 25 9 10 -17 25 -11 18 7
-4 11 -3 14 5 9 8 -5 12 3 12 24 0 28 2 30 20 20 16 -9 24 -7 37 5 23 23 30
10 42 -84z m-929 -311 c0 -20 45 -64 57 -57 5 3 25 -4 44 -16 20 -12 61 -24
99 -28 169 -20 208 -21 243 -10 28 10 40 9 56 -1 16 -10 26 -9 55 4 19 9 37
25 40 35 5 17 104 68 113 59 7 -7 -105 -86 -151 -106 -44 -20 -61 -21 -229
-17 -102 2 -198 9 -219 16 -52 17 -95 55 -123 112 -30 59 -31 68 -5 44 11 -10
20 -26 20 -35z m55 -48 c-7 -7 -45 29 -45 41 0 6 11 0 25 -13 14 -13 23 -26
20 -28z m525 -27 c0 -11 -62 -35 -72 -29 -7 5 1 12 23 20 39 14 49 16 49 9z
m-581 -138 c54 -69 94 -93 186 -112 47 -10 85 -23 85 -28 0 -5 -25 -39 -56
-74 -63 -71 -73 -70 -74 7 0 70 -5 73 -116 77 -54 2 -99 5 -101 7 -2 1 8 29
23 60 18 40 24 65 19 84 -8 31 -8 31 34 -21z m599 -82 c-12 -27 -28 -33 -28
-10 0 11 23 33 37 35 2 0 -3 -11 -9 -25z m-79 -57 c-27 -54 -26 -53 -42 -40
-7 6 -25 15 -39 21 -25 9 -29 7 -48 -25 l-22 -34 -27 37 -28 38 89 12 c48 7
96 17 106 22 31 18 33 12 11 -31z"/>
<path d="M2305 2794 c-5 -2 -86 -16 -180 -32 -96 -16 -190 -38 -215 -50 l-45
-21 65 5 c194 16 318 44 370 84 24 19 26 23 5 14z"/>
<path d="M1150 2276 c-25 -7 -86 -30 -137 -50 -90 -37 -95 -38 -225 -38 l-133
0 90 -19 c140 -29 176 -26 308 26 151 59 231 73 333 57 42 -7 79 -11 81 -9 2
2 -26 14 -62 26 -74 24 -182 27 -255 7z"/>
<path d="M1860 2218 c110 -23 213 -62 283 -108 165 -109 290 -283 423 -594 21
-49 39 -85 41 -79 5 15 -61 209 -102 299 -87 191 -229 350 -376 423 -89 44
-195 71 -269 70 l-45 -1 45 -10z"/>
<path d="M1188 2026 c-38 -14 -128 -64 -128 -71 0 -2 29 7 65 20 126 48 185
29 299 -99 67 -75 68 -76 117 -76 27 0 77 11 115 25 36 14 87 25 113 25 50 0
133 -34 189 -77 58 -44 46 -17 -15 32 -110 90 -173 102 -306 60 -43 -14 -86
-25 -96 -25 -10 0 -49 31 -86 69 -104 107 -191 145 -267 117z"/>
<path d="M1115 1842 l-40 -18 68 4 c68 4 152 -12 164 -31 4 -7 0 -7 -13 -2
-66 29 -165 7 -187 -42 -9 -20 -7 -31 8 -60 42 -77 129 -110 210 -79 l40 15
-67 -6 c-62 -5 -69 -3 -92 21 -35 34 -35 88 -1 121 49 49 110 20 144 -68 14
-38 20 -45 20 -27 1 14 -6 38 -14 54 -9 16 -13 31 -10 34 2 3 13 -15 24 -39
22 -50 29 -36 7 15 -27 65 -116 126 -183 126 -21 0 -56 -9 -78 -18z m55 -99
c-5 -16 -10 -35 -13 -43 -3 -11 -7 -9 -16 8 -11 20 -10 27 5 43 24 27 34 24
24 -8z"/>
<path d="M1252 1761 c7 -11 16 -17 20 -14 10 5 -10 33 -23 33 -5 0 -4 -9 3
-19z"/>
<path d="M1750 1761 c-69 -14 -130 -61 -130 -100 0 -9 8 -5 23 11 28 30 112
53 157 43 41 -9 86 -49 112 -99 25 -48 37 -29 18 29 -28 85 -100 131 -180 116z"/>
<path d="M1237 1717 c-8 -21 8 -39 29 -35 27 5 25 42 -2 46 -12 2 -24 -3 -27
-11z"/>
<path d="M1425 1673 c-4 -32 -14 -75 -22 -96 -21 -52 -10 -57 21 -10 25 38 31
67 28 131 -3 52 -19 37 -27 -25z"/>
<path d="M1557 1681 c-45 -50 -55 -96 -32 -145 24 -50 39 -58 29 -15 -14 57
-7 99 25 150 36 59 26 63 -22 10z"/>
<path d="M1714 1656 c-18 -8 -35 -19 -38 -25 -4 -6 10 -3 30 5 l36 15 -21 -27
c-11 -15 -21 -37 -21 -50 0 -29 20 -74 33 -74 6 0 8 -3 5 -6 -3 -3 -24 4 -47
16 -23 11 -41 18 -41 16 0 -9 84 -54 111 -61 35 -9 99 9 127 35 24 23 30 86
11 122 -23 43 -122 61 -185 34z m140 -27 c59 -46 19 -139 -60 -139 -66 0 -98
87 -49 135 30 31 73 32 109 4z"/>
<path d="M1787 1633 c-13 -13 -7 -21 13 -16 11 3 17 9 14 14 -6 11 -18 12 -27
2z"/>
<path d="M1780 1571 c0 -27 19 -36 37 -18 18 18 9 37 -18 37 -12 0 -19 -7 -19
-19z"/>
<path d="M1001 1608 c-1 -44 44 -103 96 -124 43 -18 107 -18 147 1 36 17 103
81 94 90 -3 3 -25 -4 -49 -15 -66 -29 -112 -26 -187 15 -69 38 -78 29 -19 -18
26 -22 50 -31 87 -35 60 -5 48 -22 -15 -22 -26 0 -53 8 -75 24 -33 22 -43 35
-68 96 -10 24 -11 23 -11 -12z"/>
<path d="M1305 1493 c-40 -21 -143 -103 -180 -144 -19 -20 2 -8 55 33 136 104
171 122 233 115 34 -4 45 -3 32 3 -32 14 -107 11 -140 -7z"/>
<path d="M1631 1480 c39 -61 145 -92 192 -57 15 10 11 12 -27 9 -55 -5 -106
11 -149 46 l-32 27 16 -25z"/>
<path d="M1600 1471 c0 -12 102 -166 128 -194 15 -16 36 -34 47 -40 11 -5 -4
16 -32 47 -50 55 -73 97 -35 64 42 -37 133 -48 187 -23 29 13 27 13 -45 15
-41 1 -91 8 -110 15 l-35 14 45 -6 c25 -2 56 0 70 5 21 8 11 11 -55 17 -77 7
-82 9 -122 50 -24 23 -43 40 -43 36z"/>
<path d="M1885 1448 l-16 -33 21 24 c11 13 20 27 20 32 0 18 -10 8 -25 -23z"/>
<path d="M1440 1450 c-6 -11 -20 -20 -30 -20 -22 0 -27 -16 -7 -23 10 -3 10
-9 0 -26 -7 -11 -13 -29 -13 -38 0 -31 60 39 70 80 9 42 -3 58 -20 27z"/>
<path d="M1525 1435 c17 -13 33 -24 36 -25 13 0 93 -112 131 -183 36 -67 39
-69 34 -34 -12 89 -95 206 -175 247 -53 27 -63 25 -26 -5z"/>
<path d="M1258 1284 c-5 -4 -8 -20 -8 -35 0 -21 12 -37 52 -69 66 -53 76 -34
15 28 -25 26 -47 55 -49 65 -1 11 -6 15 -10 11z"/>
<path d="M1506 1226 c-11 -17 -32 -28 -71 -37 -48 -11 -55 -15 -55 -36 0 -28
10 -27 98 12 46 21 52 27 52 54 0 37 -3 38 -24 7z"/>
<path d="M1015 990 c-3 -16 -2 -37 4 -47 8 -14 10 -8 11 30 0 54 -5 60 -15 17z"/>
<path d="M1188 900 c-4 -14 -7 -45 -7 -70 l1 -45 9 45 c5 25 8 56 7 70 l-3 25
-7 -25z"/>
<path d="M1300 823 c0 -41 3 -54 10 -43 13 20 13 100 0 100 -6 0 -10 -26 -10
-57z"/>
<path d="M1487 840 c-14 -59 -18 -102 -8 -96 13 8 24 66 19 97 l-4 24 -7 -25z"/>
</g>
</svg>
